<?xml version="1.0" encoding="UTF-8" standalone="no"?>
<svg
   clip-rule="evenodd"
   fill-rule="evenodd"
   image-rendering="optimizeQuality"
   shape-rendering="geometricPrecision"
   text-rendering="geometricPrecision"
   viewBox="0 0 3360 2460"
   xml:space="preserve"
   version="1.1"
   id="svg10"
   sodipodi:docname="phone.svg"
   inkscape:version="1.1 (c68e22c387, 2021-05-23)"
   xmlns:inkscape="http://www.inkscape.org/namespaces/inkscape"
   xmlns:sodipodi="http://sodipodi.sourceforge.net/DTD/sodipodi-0.dtd"
   xmlns="http://www.w3.org/2000/svg"
   xmlns:svg="http://www.w3.org/2000/svg"><sodipodi:namedview
   id="namedview12"
   pagecolor="#ffffff"
   bordercolor="#666666"
   borderopacity="1.0"
   inkscape:pageshadow="2"
   inkscape:pageopacity="0.0"
   inkscape:pagecheckerboard="0"
   showgrid="false"
   inkscape:zoom="0.31788618"
   inkscape:cx="1681.4194"
   inkscape:cy="1481.6624"
   inkscape:window-width="1920"
   inkscape:window-height="986"
   inkscape:window-x="-11"
   inkscape:window-y="-11"
   inkscape:window-maximized="1"
   inkscape:current-layer="svg10" />
 <defs
   id="defs4">
  <style
   type="text/css"
   id="style2">
    .fil0 {fill:black}
  </style>
 </defs>
  <path
   class="fil0"
   d="M 1665.844,2469.6553 H 361.49616 c 0,-231.5126 70.07176,-448.1645 192.48628,-631.9666 52.34272,14.8605 108.06241,22.6819 166.31501,22.6819 319.12205,0 578.30305,-240.1161 578.30305,-535.7638 v -14.0784 c 116.5049,-31.2855 239.7637,-48.4926 367.2435,-48.4926 128.3243,0 251.5832,17.2071 368.9322,49.2748 -0.8444,12.514 -1.6885,24.2461 -1.6885,36.7603 0,295.6477 259.1811,535.7638 578.3031,535.7638 62.4736,0 122.4145,-9.3857 178.9784,-25.8105 113.9722,179.8915 179.8228,388.7221 179.8228,612.4133 H 1665.844 Z m 0,-948.7322 c 216.1251,0 390.8823,161.9024 390.8823,362.1295 0,200.227 -174.7572,362.1294 -390.8823,362.1294 -216.1248,0 -390.882,-161.9024 -390.882,-362.1294 0,-200.2271 174.7572,-362.1295 390.882,-362.1295 z"
   id="path6"
   style="stroke-width:1" />
  <path
   class="fil0"
   d="m 1144.3535,1235.7741 c 33.6365,47.0512 52.1366,100.213 52.1366,157.0411 0,188.8161 -211.06844,342.1908 -470.90935,342.1908 -259.84073,0 -470.90896,-153.3747 -470.90896,-342.1908 0,-60.4943 21.86369,-116.7115 58.86367,-166.207 167.34083,-255.42087 709.72724,-442.40362 1353.86364,-442.40362 724.0227,0 1320.2273,236.47812 1397.5908,540.78352 10.0909,27.4975 15.1363,56.217 15.1363,85.5476 0,188.8161 -211.0683,342.1908 -470.9089,342.1908 -259.841,0 -470.9093,-153.3747 -470.9093,-342.1908 0,-61.7165 22.7044,-119.1556 61.3863,-168.651 -113.5226,-75.1599 -309.4546,-124.6554 -532.2952,-124.6554 -216.9548,0 -408.6819,47.0514 -523.0456,118.5448 z"
   id="path8"
   style="stroke-width:1" />
</svg>
